<svg width="20" height="20" viewBox="0 0 20 20" fill="none" xmlns="http://www.w3.org/2000/svg">
<path fill-rule="evenodd" clip-rule="evenodd" d="M14.1124 2.52241C13.2754 2.16371 12.3044 2.35071 11.6605 2.9946L3.72062 10.9345L3.63874 11.0162C3.23813 11.4156 2.88259 11.77 2.69053 12.2337C2.49848 12.6973 2.49925 13.1994 2.50012 13.7651L2.50023 13.8807L2.50023 15.0454C2.50016 15.3988 2.50009 15.7422 2.53817 16.0255C2.58111 16.3448 2.68571 16.7092 2.98839 17.0119C3.29107 17.3146 3.65547 17.4192 3.9748 17.4621C4.25807 17.5002 4.60151 17.5001 4.95491 17.5L6.11952 17.5L6.2352 17.5001C6.80088 17.501 7.30291 17.5018 7.76659 17.3097C8.23026 17.1177 8.5847 16.7621 8.98408 16.3615L9.0658 16.2796L17.0057 8.33978C17.6496 7.69589 17.8366 6.72485 17.4779 5.88788C16.8297 4.37558 15.6247 3.17054 14.1124 2.52241ZM12.839 4.17311C13.001 4.01112 13.2453 3.96407 13.4558 4.05432C14.5748 4.53386 15.4664 5.42547 15.9459 6.54441C16.0362 6.75498 15.9891 6.99928 15.8272 7.16127L15.0002 7.98819L12.0121 5.00003L12.839 4.17311ZM10.8336 6.17854L4.89913 12.113C4.36934 12.6428 4.27902 12.754 4.23033 12.8715C4.18165 12.989 4.1669 13.1315 4.1669 13.8807V15C4.1669 15.4164 4.16867 15.6449 4.18998 15.8034L4.19081 15.8095L4.19688 15.8103C4.35537 15.8316 4.58384 15.8334 5.00023 15.8334H6.11952C6.86877 15.8334 7.01125 15.8186 7.12878 15.7699C7.24631 15.7212 7.35749 15.6309 7.88729 15.1011L13.8217 9.1667L10.8336 6.17854Z" fill="white"/>
</svg>
