<svg width="31" height="30" viewBox="0 0 31 30" fill="none" xmlns="http://www.w3.org/2000/svg">
<path fill-rule="evenodd" clip-rule="evenodd" d="M17.0929 1.48409C17.3421 0.694003 18.1845 0.255458 18.9746 0.504572L20.1603 0.878414L21.3693 1.37923L22.5302 1.98353L23.6339 2.68669L24.6722 3.48338L25.6371 4.36753L26.5212 5.33241L27.3179 6.37068L28.0211 7.47443L28.5951 8.57718C28.9777 9.312 28.6921 10.2178 27.9572 10.6003C27.2224 10.9828 26.3166 10.6972 25.9341 9.96242L25.4205 8.97586L24.8581 8.09305L24.2209 7.26261L23.5137 6.49088L22.742 5.78371L21.9116 5.14649L21.0287 4.58408L20.1003 4.10075L19.1332 3.70018L18.0725 3.36572C17.2824 3.11661 16.8438 2.27417 17.0929 1.48409Z" fill="#1068F4"/>
<path fill-rule="evenodd" clip-rule="evenodd" d="M14.151 1.35554C14.3303 2.16433 13.82 2.96534 13.0112 3.14465L11.9254 3.38538L10.9271 3.70014L9.95999 4.10071L9.03153 4.58404L8.14871 5.14645L7.31828 5.78367L6.54654 6.49083L5.83937 7.26257L5.20216 8.09301L4.63974 8.97582L4.15641 9.90429L3.75584 10.8714L3.44108 11.8696L3.21453 12.8916L3.0779 13.9294L3.03224 14.9751L3.0779 16.0209L3.21453 17.0586L3.44108 18.0806L3.75584 19.0789L4.15642 20.0459L4.63974 20.9744L5.20216 21.8572L5.83938 22.6876L6.54654 23.4594L7.31828 24.1665L8.14871 24.8038L9.03152 25.3662L9.96 25.8495L10.927 26.2501L11.9254 26.5648L12.9473 26.7914L13.9851 26.928L15.0308 26.9737L16.0766 26.928L17.1143 26.7914L18.1363 26.5648L19.1346 26.2501L20.1016 25.8495L21.0301 25.3662L21.9129 24.8038L22.7433 24.1665L23.5151 23.4594L24.2223 22.6876L24.8595 21.8572L25.4219 20.9744L25.9052 20.0459L26.3058 19.0789L26.6205 18.0806L26.8471 17.0586L26.9837 16.0209L27.0322 14.9097C27.0684 14.082 27.7686 13.4404 28.5962 13.4765C29.4239 13.5127 30.0655 14.2129 30.0294 15.0405L29.9752 16.2826L29.8043 17.5801L29.5211 18.8578L29.1275 20.1059L28.6267 21.315L28.0224 22.4758L27.3193 23.5796L26.5226 24.6178L25.6384 25.5827L24.6735 26.4669L23.6353 27.2636L22.5315 27.9667L21.3707 28.571L20.1616 29.0718L18.9135 29.4654L17.6358 29.7486L16.3383 29.9195L15.0308 29.9765L13.7234 29.9194L12.4258 29.7486L11.1482 29.4654L9.90002 29.0718L8.69093 28.571L7.5301 27.9667L6.42635 27.2636L5.38808 26.4669L4.4232 25.5827L3.53905 24.6178L2.74236 23.5796L2.03919 22.4758L1.4349 21.315L0.93408 20.1059L0.540545 18.8578L0.257288 17.5801L0.0864672 16.2826L0.0293825 14.9751L0.0864672 13.6676L0.257288 12.3701L0.540543 11.0925L0.934079 9.84432L1.4349 8.63523L2.03919 7.47439L2.74236 6.37064L3.53905 5.33237L4.4232 4.36749L5.38808 3.48335L6.42635 2.68665L7.5301 1.98349L8.69093 1.37919L9.90002 0.878375L11.1482 0.484839L12.3619 0.215758C13.1707 0.0364536 13.9717 0.546752 14.151 1.35554Z" fill="#3F3F46"/>
</svg>
