<svg width="56" height="59" viewBox="0 0 56 59" fill="none" xmlns="http://www.w3.org/2000/svg">
<g clip-path="url(#clip0_30081_7126)" filter="url(#filter0_dd_30081_7126)">
<path d="M24.4169 9.45927C26.6311 8.16769 29.3689 8.16769 31.5831 9.45927L36.472 12.3111C38.6566 13.5855 40 15.9244 40 18.4536V24.2847C40 26.8139 38.6566 29.1528 36.472 30.4272L31.5831 33.279C29.3689 34.5706 26.6311 34.5706 24.4169 33.279L19.528 30.4272C17.3434 29.1528 16 26.8139 16 24.2847V18.4536C16 15.9244 17.3434 13.5855 19.528 12.3111L24.4169 9.45927Z" fill="#1068F4"/>
<path d="M26.2363 8.97656C27.3261 8.34086 28.6739 8.34086 29.7637 8.97656L37.7637 13.6436C38.8388 14.2708 39.5 15.4222 39.5 16.667V26.0713C39.5 27.3161 38.8388 28.4675 37.7637 29.0947L29.7637 33.7617C28.6739 34.3974 27.3261 34.3974 26.2363 33.7617L18.2363 29.0947C17.1612 28.4675 16.5 27.3161 16.5 26.0713V16.667C16.5 15.4222 17.1612 14.2708 18.2363 13.6436L26.2363 8.97656Z" fill="#2563EB" stroke="url(#paint0_linear_30081_7126)"/>
<g filter="url(#filter1_dd_30081_7126)">
<g filter="url(#filter2_dd_30081_7126)">
<path d="M30.0952 14.3218L29.8384 14.7499C29.753 14.8921 29.7104 14.9632 29.6524 15.0212C29.5943 15.0792 29.5232 15.1219 29.381 15.2072L28.953 15.464C28.5275 15.7193 28.3147 15.847 28.3147 16.0357C28.3147 16.2244 28.5275 16.3521 28.953 16.6074L29.381 16.8642C29.5232 16.9495 29.5943 16.9922 29.6524 17.0502C29.7104 17.1082 29.753 17.1793 29.8383 17.3215L30.0952 17.7496C30.3505 18.1751 30.4781 18.3878 30.6669 18.3878C30.8556 18.3878 30.9832 18.1751 31.2385 17.7496L31.4954 17.3215C31.5807 17.1794 31.6233 17.1082 31.6814 17.0502C31.7394 16.9922 31.8105 16.9495 31.9527 16.8642L32.3808 16.6074C32.8062 16.3521 33.019 16.2244 33.019 16.0357C33.019 15.847 32.8062 15.7193 32.3808 15.464L31.9527 15.2072C31.8105 15.1219 31.7394 15.0792 31.6814 15.0212C31.6233 14.9632 31.5807 14.8921 31.4954 14.7499L31.2385 14.3218C30.9832 13.8963 30.8556 13.6836 30.6669 13.6836C30.4781 13.6836 30.3505 13.8963 30.0952 14.3218Z" fill="white"/>
<path d="M34.3335 18.869C34.2003 18.8025 34.1337 18.7692 34.0771 18.7232C34.0412 18.6941 34.0085 18.6613 33.9793 18.6254C33.9334 18.5688 33.9001 18.5022 33.8335 18.369C33.6599 18.0217 33.573 17.848 33.4502 17.8021C33.375 17.774 33.2921 17.774 33.2169 17.8021C33.094 17.848 33.0072 18.0217 32.8335 18.369C32.767 18.5022 32.7336 18.5688 32.6877 18.6254C32.6586 18.6613 32.6258 18.6941 32.5899 18.7232C32.5333 18.7692 32.4667 18.8025 32.3335 18.869C31.9862 19.0427 31.8125 19.1295 31.7666 19.2524C31.7385 19.3276 31.7385 19.4105 31.7666 19.4857C31.8125 19.6085 31.9862 19.6954 32.3335 19.869C32.4667 19.9356 32.5333 19.9689 32.5899 20.0149C32.6258 20.044 32.6586 20.0767 32.6877 20.1126C32.7336 20.1693 32.7669 20.2359 32.8335 20.369C33.0072 20.7164 33.094 20.89 33.2169 20.9359C33.2921 20.964 33.375 20.964 33.4502 20.9359C33.573 20.89 33.6599 20.7164 33.8335 20.369C33.9001 20.2359 33.9334 20.1693 33.9793 20.1126C34.0085 20.0767 34.0412 20.044 34.0771 20.0149C34.1337 19.9689 34.2003 19.9356 34.3335 19.869C34.6809 19.6954 34.8545 19.6085 34.9004 19.4857C34.9285 19.4105 34.9285 19.3276 34.9004 19.2524C34.8545 19.1295 34.6809 19.0427 34.3335 18.869Z" fill="white"/>
<path d="M26.1341 17.1314C26.2444 16.9456 26.5049 16.569 27.0002 16.569C27.4955 16.569 27.756 16.9456 27.8663 17.1314C27.9841 17.33 28.0979 17.6035 28.2147 17.8838L28.8599 19.4324C29.0891 19.9825 29.1435 20.0826 29.2151 20.1542C29.2866 20.2258 29.3868 20.2801 29.9368 20.5093L31.4854 21.1546C31.7658 21.2713 32.0393 21.3852 32.2378 21.503C32.4237 21.6132 32.8002 21.8737 32.8002 22.369C32.8002 22.8643 32.4237 23.1249 32.2378 23.2351C32.0393 23.3529 31.7658 23.4668 31.4855 23.5835L29.9368 24.2288C29.3868 24.458 29.2866 24.5123 29.2151 24.5839C29.1435 24.6555 29.0891 24.7556 28.8599 25.3057L28.2147 26.8543C28.098 27.1346 27.9841 27.4081 27.8663 27.6066C27.756 27.7925 27.4955 28.169 27.0002 28.169C26.5049 28.169 26.2444 27.7925 26.1341 27.6066C26.0163 27.4081 25.9025 27.1347 25.7857 26.8543L25.1405 25.3057C24.9113 24.7556 24.8569 24.6555 24.7853 24.5839C24.7137 24.5123 24.6136 24.458 24.0635 24.2288L22.5149 23.5835C22.2346 23.4668 21.9611 23.3529 21.7626 23.2351C21.5767 23.1249 21.2002 22.8643 21.2002 22.369C21.2002 21.8737 21.5767 21.6132 21.7626 21.503C21.9611 21.3852 22.2346 21.2713 22.5149 21.1546L24.0635 20.5093C24.6136 20.2801 24.7137 20.2258 24.7853 20.1542C24.8569 20.0826 24.9113 19.9825 25.1405 19.4324L25.7857 17.8838C25.9024 17.6035 26.0163 17.33 26.1341 17.1314Z" fill="white"/>
<path d="M30.0952 14.3218L29.8384 14.7499C29.753 14.8921 29.7104 14.9632 29.6524 15.0212C29.5943 15.0792 29.5232 15.1219 29.381 15.2072L28.953 15.464C28.5275 15.7193 28.3147 15.847 28.3147 16.0357C28.3147 16.2244 28.5275 16.3521 28.953 16.6074L29.381 16.8642C29.5232 16.9495 29.5943 16.9922 29.6524 17.0502C29.7104 17.1082 29.753 17.1793 29.8383 17.3215L30.0952 17.7496C30.3505 18.1751 30.4781 18.3878 30.6669 18.3878C30.8556 18.3878 30.9832 18.1751 31.2385 17.7496L31.4954 17.3215C31.5807 17.1794 31.6233 17.1082 31.6814 17.0502C31.7394 16.9922 31.8105 16.9495 31.9527 16.8642L32.3808 16.6074C32.8062 16.3521 33.019 16.2244 33.019 16.0357C33.019 15.847 32.8062 15.7193 32.3808 15.464L31.9527 15.2072C31.8105 15.1219 31.7394 15.0792 31.6814 15.0212C31.6233 14.9632 31.5807 14.8921 31.4954 14.7499L31.2385 14.3218C30.9832 13.8963 30.8556 13.6836 30.6669 13.6836C30.4781 13.6836 30.3505 13.8963 30.0952 14.3218Z" stroke="url(#paint1_linear_30081_7126)" stroke-width="0.5" stroke-linecap="round" stroke-linejoin="round"/>
<path d="M34.3335 18.869C34.2003 18.8025 34.1337 18.7692 34.0771 18.7232C34.0412 18.6941 34.0085 18.6613 33.9793 18.6254C33.9334 18.5688 33.9001 18.5022 33.8335 18.369C33.6599 18.0217 33.573 17.848 33.4502 17.8021C33.375 17.774 33.2921 17.774 33.2169 17.8021C33.094 17.848 33.0072 18.0217 32.8335 18.369C32.767 18.5022 32.7336 18.5688 32.6877 18.6254C32.6586 18.6613 32.6258 18.6941 32.5899 18.7232C32.5333 18.7692 32.4667 18.8025 32.3335 18.869C31.9862 19.0427 31.8125 19.1295 31.7666 19.2524C31.7385 19.3276 31.7385 19.4105 31.7666 19.4857C31.8125 19.6085 31.9862 19.6954 32.3335 19.869C32.4667 19.9356 32.5333 19.9689 32.5899 20.0149C32.6258 20.044 32.6586 20.0767 32.6877 20.1126C32.7336 20.1693 32.7669 20.2359 32.8335 20.369C33.0072 20.7164 33.094 20.89 33.2169 20.9359C33.2921 20.964 33.375 20.964 33.4502 20.9359C33.573 20.89 33.6599 20.7164 33.8335 20.369C33.9001 20.2359 33.9334 20.1693 33.9793 20.1126C34.0085 20.0767 34.0412 20.044 34.0771 20.0149C34.1337 19.9689 34.2003 19.9356 34.3335 19.869C34.6809 19.6954 34.8545 19.6085 34.9004 19.4857C34.9285 19.4105 34.9285 19.3276 34.9004 19.2524C34.8545 19.1295 34.6809 19.0427 34.3335 18.869Z" stroke="url(#paint2_linear_30081_7126)" stroke-width="0.5" stroke-linecap="round" stroke-linejoin="round"/>
<path d="M26.1341 17.1314C26.2444 16.9456 26.5049 16.569 27.0002 16.569C27.4955 16.569 27.756 16.9456 27.8663 17.1314C27.9841 17.33 28.0979 17.6035 28.2147 17.8838L28.8599 19.4324C29.0891 19.9825 29.1435 20.0826 29.2151 20.1542C29.2866 20.2258 29.3868 20.2801 29.9368 20.5093L31.4854 21.1546C31.7658 21.2713 32.0393 21.3852 32.2378 21.503C32.4237 21.6132 32.8002 21.8737 32.8002 22.369C32.8002 22.8643 32.4237 23.1249 32.2378 23.2351C32.0393 23.3529 31.7658 23.4668 31.4855 23.5835L29.9368 24.2288C29.3868 24.458 29.2866 24.5123 29.2151 24.5839C29.1435 24.6555 29.0891 24.7556 28.8599 25.3057L28.2147 26.8543C28.098 27.1346 27.9841 27.4081 27.8663 27.6066C27.756 27.7925 27.4955 28.169 27.0002 28.169C26.5049 28.169 26.2444 27.7925 26.1341 27.6066C26.0163 27.4081 25.9025 27.1347 25.7857 26.8543L25.1405 25.3057C24.9113 24.7556 24.8569 24.6555 24.7853 24.5839C24.7137 24.5123 24.6136 24.458 24.0635 24.2288L22.5149 23.5835C22.2346 23.4668 21.9611 23.3529 21.7626 23.2351C21.5767 23.1249 21.2002 22.8643 21.2002 22.369C21.2002 21.8737 21.5767 21.6132 21.7626 21.503C21.9611 21.3852 22.2346 21.2713 22.5149 21.1546L24.0635 20.5093C24.6136 20.2801 24.7137 20.2258 24.7853 20.1542C24.8569 20.0826 24.9113 19.9825 25.1405 19.4324L25.7857 17.8838C25.9024 17.6035 26.0163 17.33 26.1341 17.1314Z" stroke="url(#paint3_linear_30081_7126)" stroke-width="0.5" stroke-linecap="round" stroke-linejoin="round"/>
</g>
</g>
</g>
<defs>
<filter id="filter0_dd_30081_7126" x="-3" y="-1.63086" width="62" height="62" filterUnits="userSpaceOnUse" color-interpolation-filters="sRGB">
<feFlood flood-opacity="0" result="BackgroundImageFix"/>
<feColorMatrix in="SourceAlpha" type="matrix" values="0 0 0 0 0 0 0 0 0 0 0 0 0 0 0 0 0 0 127 0" result="hardAlpha"/>
<feOffset dy="8"/>
<feGaussianBlur stdDeviation="8"/>
<feColorMatrix type="matrix" values="0 0 0 0 0.0588235 0 0 0 0 0.0901961 0 0 0 0 0.164706 0 0 0 0.02 0"/>
<feBlend mode="normal" in2="BackgroundImageFix" result="effect1_dropShadow_30081_7126"/>
<feColorMatrix in="SourceAlpha" type="matrix" values="0 0 0 0 0 0 0 0 0 0 0 0 0 0 0 0 0 0 127 0" result="hardAlpha"/>
<feOffset dy="4"/>
<feGaussianBlur stdDeviation="4"/>
<feColorMatrix type="matrix" values="0 0 0 0 0.0588235 0 0 0 0 0.0901961 0 0 0 0 0.164706 0 0 0 0.03 0"/>
<feBlend mode="normal" in2="effect1_dropShadow_30081_7126" result="effect2_dropShadow_30081_7126"/>
<feBlend mode="normal" in="SourceGraphic" in2="effect2_dropShadow_30081_7126" result="shape"/>
</filter>
<filter id="filter1_dd_30081_7126" x="6" y="13.3691" width="44" height="44" filterUnits="userSpaceOnUse" color-interpolation-filters="sRGB">
<feFlood flood-opacity="0" result="BackgroundImageFix"/>
<feColorMatrix in="SourceAlpha" type="matrix" values="0 0 0 0 0 0 0 0 0 0 0 0 0 0 0 0 0 0 127 0" result="hardAlpha"/>
<feMorphology radius="2.33333" operator="erode" in="SourceAlpha" result="effect1_dropShadow_30081_7126"/>
<feOffset dy="4.66667"/>
<feGaussianBlur stdDeviation="3.5"/>
<feColorMatrix type="matrix" values="0 0 0 0 0.109804 0 0 0 0 0.0980392 0 0 0 0 0.0901961 0 0 0 0.03 0"/>
<feBlend mode="normal" in2="BackgroundImageFix" result="effect1_dropShadow_30081_7126"/>
<feColorMatrix in="SourceAlpha" type="matrix" values="0 0 0 0 0 0 0 0 0 0 0 0 0 0 0 0 0 0 127 0" result="hardAlpha"/>
<feMorphology radius="4.66667" operator="erode" in="SourceAlpha" result="effect2_dropShadow_30081_7126"/>
<feOffset dy="14"/>
<feGaussianBlur stdDeviation="9.33333"/>
<feColorMatrix type="matrix" values="0 0 0 0 0.109804 0 0 0 0 0.0980392 0 0 0 0 0.0901961 0 0 0 0.08 0"/>
<feBlend mode="normal" in2="effect1_dropShadow_30081_7126" result="effect2_dropShadow_30081_7126"/>
<feBlend mode="normal" in="SourceGraphic" in2="effect2_dropShadow_30081_7126" result="shape"/>
</filter>
<filter id="filter2_dd_30081_7126" x="2.28353" y="4.10026" width="51.555" height="52.3187" filterUnits="userSpaceOnUse" color-interpolation-filters="sRGB">
<feFlood flood-opacity="0" result="BackgroundImageFix"/>
<feColorMatrix in="SourceAlpha" type="matrix" values="0 0 0 0 0 0 0 0 0 0 0 0 0 0 0 0 0 0 127 0" result="hardAlpha"/>
<feOffset dy="9.33333"/>
<feGaussianBlur stdDeviation="9.33333"/>
<feColorMatrix type="matrix" values="0 0 0 0 0.0588235 0 0 0 0 0.0901961 0 0 0 0 0.164706 0 0 0 0.02 0"/>
<feBlend mode="normal" in2="BackgroundImageFix" result="effect1_dropShadow_30081_7126"/>
<feColorMatrix in="SourceAlpha" type="matrix" values="0 0 0 0 0 0 0 0 0 0 0 0 0 0 0 0 0 0 127 0" result="hardAlpha"/>
<feOffset dy="4.66667"/>
<feGaussianBlur stdDeviation="4.66667"/>
<feColorMatrix type="matrix" values="0 0 0 0 0.0588235 0 0 0 0 0.0901961 0 0 0 0 0.164706 0 0 0 0.03 0"/>
<feBlend mode="normal" in2="effect1_dropShadow_30081_7126" result="effect2_dropShadow_30081_7126"/>
<feBlend mode="normal" in="SourceGraphic" in2="effect2_dropShadow_30081_7126" result="shape"/>
</filter>
<linearGradient id="paint0_linear_30081_7126" x1="28" y1="7.36914" x2="28" y2="35.3691" gradientUnits="userSpaceOnUse">
<stop stop-color="#3B82F6" stop-opacity="0"/>
<stop offset="1" stop-color="#3B82F6"/>
</linearGradient>
<linearGradient id="paint1_linear_30081_7126" x1="28.0609" y1="13.6836" x2="28.0609" y2="28.169" gradientUnits="userSpaceOnUse">
<stop stop-color="white"/>
<stop offset="1" stop-color="white" stop-opacity="0"/>
</linearGradient>
<linearGradient id="paint2_linear_30081_7126" x1="28.0609" y1="13.6836" x2="28.0609" y2="28.169" gradientUnits="userSpaceOnUse">
<stop stop-color="white"/>
<stop offset="1" stop-color="white" stop-opacity="0"/>
</linearGradient>
<linearGradient id="paint3_linear_30081_7126" x1="28.0609" y1="13.6836" x2="28.0609" y2="28.169" gradientUnits="userSpaceOnUse">
<stop stop-color="white"/>
<stop offset="1" stop-color="white" stop-opacity="0"/>
</linearGradient>
<clipPath id="clip0_30081_7126">
<rect width="30" height="30" fill="white" transform="translate(13 6.36914)"/>
</clipPath>
</defs>
</svg>
