<svg width="20" height="20" viewBox="0 0 20 20" fill="none" xmlns="http://www.w3.org/2000/svg">
<path fill-rule="evenodd" clip-rule="evenodd" d="M7.16826 1.42278C4.57033 2.50525 2.50525 4.57035 1.42278 7.16828C1.00101 8.18052 1.001 9.31931 1.42276 10.3316C2.50523 12.9295 4.5703 14.9946 7.16824 16.077C8.18048 16.4988 9.31925 16.4988 10.3315 16.077C11.3689 15.6448 12.3214 15.0558 13.1602 14.3388L16.9106 18.0892L18.0891 16.9107L14.3387 13.1603C15.0558 12.3215 15.6447 11.369 16.077 10.3315C16.4988 9.3193 16.4988 8.18054 16.077 7.1683C14.9946 4.57033 12.9295 2.50525 10.3315 1.42277C9.31929 1.001 8.18051 1.001 7.16826 1.42278ZM2.96124 7.80931C3.87463 5.61717 5.61715 3.87463 7.80929 2.96124C8.41128 2.71041 9.08852 2.7104 9.69051 2.96123C11.8827 3.87463 13.6252 5.61715 14.5385 7.80931C14.7894 8.4113 14.7894 9.08853 14.5385 9.69051C13.6251 11.8827 11.8826 13.6252 9.69047 14.5386C9.08848 14.7894 8.41124 14.7894 7.80926 14.5386C5.61711 13.6252 3.87461 11.8827 2.96123 9.69054C2.7104 9.08855 2.71041 8.4113 2.96124 7.80931Z" fill="#B3B3B3"/>
</svg>
