<svg width="20" height="20" viewBox="0 0 20 20" fill="none" xmlns="http://www.w3.org/2000/svg">
<path d="M7.5 3.33329H12.5V1.66663H7.5V3.33329Z" fill="white"/>
<path fill-rule="evenodd" clip-rule="evenodd" d="M17.5 5.83329H15.7778L15.1117 15.4919C15.0187 16.8402 14.0348 17.9595 12.7095 18.2246C10.9209 18.5823 9.07912 18.5823 7.29048 18.2246C5.96518 17.9595 4.98126 16.8402 4.88827 15.4919L4.22216 5.83329H2.5V4.16663H17.5V5.83329ZM5.89278 5.83329H14.1072L13.449 15.3772C13.4077 15.9757 12.971 16.4726 12.3827 16.5903C10.8098 16.9048 9.1902 16.9048 7.61734 16.5903C7.02903 16.4726 6.59226 15.9757 6.55098 15.3772L5.89278 5.83329Z" fill="white"/>
</svg>
