<svg width="18" height="18" viewBox="0 0 18 18" fill="none" xmlns="http://www.w3.org/2000/svg">
<path d="M3 8.16779V2.25H4.5V8.16779C4.5 8.34196 4.61145 8.49658 4.77667 8.55165C5.57075 8.81635 6.42925 8.81635 7.22333 8.55165C7.38855 8.49658 7.5 8.34196 7.5 8.16779V2.25H9V8.16779C9 8.9876 8.47541 9.71543 7.69767 9.97468C7.38753 10.0781 7.07031 10.1523 6.75 10.1975L6.75 16.5H5.25L5.25 10.1975C4.92969 10.1523 4.61247 10.0781 4.30233 9.97468C3.52459 9.71543 3 8.9876 3 8.16779Z" fill="#333333"/>
<path d="M11.141 2.25C10.3728 2.25 9.75 2.87275 9.75 3.64095L9.75 16.5H11.25V12.75L12.6629 12.75C13.0068 12.7501 13.338 12.7501 13.6087 12.7126C13.9121 12.6706 14.261 12.5675 14.5387 12.2657C14.8165 11.9638 14.8902 11.6076 14.9069 11.3017C14.9218 11.0288 14.8942 10.6988 14.8656 10.3561L14.4433 5.28861C14.3002 3.57109 12.8644 2.25 11.141 2.25Z" fill="#333333"/>
<path d="M5.25 2.25V7.5H6.75V2.25H5.25Z" fill="#333333"/>
</svg>
