<svg width="24" height="24" viewBox="0 0 24 24" fill="none" xmlns="http://www.w3.org/2000/svg">
<path d="M15.1433 1.42913L14.758 2.07123C14.6301 2.28452 14.5661 2.39117 14.479 2.47821C14.392 2.56526 14.2853 2.62925 14.072 2.75722L13.4299 3.14248C12.7917 3.52542 12.4726 3.71688 12.4726 3.99998C12.4726 4.28307 12.7917 4.47454 13.4299 4.85747L14.072 5.24273C14.2853 5.3707 14.392 5.43469 14.479 5.52174C14.5661 5.60878 14.63 5.71541 14.758 5.92866L15.1433 6.57082C15.5262 7.20904 15.7177 7.52815 16.0008 7.52815C16.2839 7.52815 16.4753 7.20904 16.8583 6.57082L17.2435 5.92872C17.3715 5.71544 17.4355 5.60879 17.5225 5.52174C17.6096 5.43469 17.7162 5.3707 17.9295 5.24273L18.5716 4.85747C19.2098 4.47454 19.529 4.28307 19.529 3.99998C19.529 3.71688 19.2098 3.52542 18.5716 3.14248L17.9295 2.75722C17.7162 2.62925 17.6096 2.56526 17.5225 2.47821C17.4355 2.39117 17.3715 2.28452 17.2435 2.07124L16.8583 1.42913C16.4753 0.790912 16.2839 0.471802 16.0008 0.471802C15.7177 0.471802 15.5262 0.790912 15.1433 1.42913Z" fill="black"/>
<path d="M21.5008 8.24998C21.301 8.15009 21.2011 8.10014 21.1162 8.03126C21.0623 7.98758 21.0132 7.93842 20.9695 7.88457C20.9006 7.79964 20.8507 7.69975 20.7508 7.49998C20.4903 6.97897 20.36 6.71847 20.1758 6.64963C20.0629 6.60747 19.9386 6.60747 19.8258 6.64963C19.6415 6.71847 19.5113 6.97897 19.2508 7.49998C19.1509 7.69969 19.1009 7.79966 19.0321 7.88457C18.9884 7.93842 18.9392 7.98758 18.8854 8.03126C18.8004 8.10014 18.7006 8.15009 18.5008 8.24998C17.9798 8.51048 17.7193 8.64073 17.6504 8.82499C17.6083 8.93784 17.6083 9.06212 17.6504 9.17497C17.7193 9.35922 17.9798 9.48948 18.5008 9.74998C18.7006 9.84987 18.8004 9.89981 18.8854 9.9687C18.9392 10.0124 18.9884 10.0615 19.0321 10.1154C19.1009 10.2003 19.1509 10.3002 19.2508 10.5C19.5113 11.021 19.6415 11.2815 19.8258 11.3503C19.9386 11.3925 20.0629 11.3925 20.1758 11.3503C20.36 11.2815 20.4903 11.021 20.7508 10.5C20.8507 10.3002 20.9006 10.2003 20.9695 10.1154C21.0132 10.0615 21.0623 10.0124 21.1162 9.9687C21.2011 9.89981 21.301 9.84987 21.5008 9.74998C22.0218 9.48948 22.2823 9.35922 22.3511 9.17497C22.3933 9.06212 22.3933 8.93784 22.3511 8.82499C22.2823 8.64073 22.0218 8.51048 21.5008 8.24998Z" fill="black"/>
<path d="M9.20165 5.64357C9.36706 5.36477 9.75783 4.79998 10.5008 4.79998C11.2437 4.79998 11.6345 5.36477 11.7999 5.64357C11.9766 5.94139 12.1474 6.35159 12.3225 6.7721L13.2904 9.095C13.6342 9.9201 13.7157 10.0703 13.8231 10.1777C13.9305 10.285 14.0807 10.3666 14.9058 10.7104L17.2286 11.6782C17.6491 11.8533 18.0594 12.0242 18.3572 12.2008C18.636 12.3663 19.2008 12.757 19.2008 13.5C19.2008 14.2429 18.636 14.6337 18.3572 14.7991C18.0594 14.9758 17.6492 15.1466 17.2287 15.3217L14.9058 16.2896C14.0807 16.6334 13.9305 16.7149 13.8231 16.8223C13.7157 16.9296 13.6342 17.0799 13.2904 17.905L12.3225 20.2279C12.1474 20.6483 11.9766 21.0586 11.7999 21.3564C11.6345 21.6352 11.2437 22.2 10.5008 22.2C9.75783 22.2 9.36706 21.6352 9.20165 21.3564C9.02496 21.0586 8.85416 20.6484 8.67907 20.2279L7.71119 17.905C7.3674 17.0799 7.28584 16.9296 7.17848 16.8223C7.07111 16.7149 6.9209 16.6334 6.0958 16.2896L3.7729 15.3217C3.35239 15.1466 2.9422 14.9758 2.64438 14.7991C2.36558 14.6337 1.80078 14.2429 1.80078 13.5C1.80078 12.757 2.36558 12.3663 2.64438 12.2008C2.9422 12.0242 3.3524 11.8533 3.77291 11.6782L6.0958 10.7104C6.9209 10.3666 7.07111 10.285 7.17848 10.1777C7.28584 10.0703 7.3674 9.9201 7.71119 9.095L8.67905 6.77211C8.85415 6.3516 9.02495 5.9414 9.20165 5.64357Z" fill="black"/>
</svg>
