<svg width="18" height="18" viewBox="0 0 18 18" fill="none" xmlns="http://www.w3.org/2000/svg">
<path d="M7.86367 11.9473L9.00037 10.8106L10.1371 11.9473C10.7672 12.5774 11.0062 13.4996 10.7613 14.3564C10.6841 14.6268 10.4784 14.8417 10.2116 14.9306L10.0193 14.9947C9.35791 15.2152 8.64282 15.2152 7.98139 14.9947L7.78911 14.9306C7.52234 14.8417 7.31664 14.6268 7.23939 14.3564C6.99458 13.4996 7.23355 12.5774 7.86367 11.9473Z" fill="#333333"/>
<path fill-rule="evenodd" clip-rule="evenodd" d="M6.93773 1.30976C7.25874 1.03577 7.74013 0.726953 8.33946 0.886851C8.93878 1.04675 9.20236 1.55433 9.34423 1.95181C9.48413 2.34381 9.59051 2.87602 9.7108 3.47776L10.0453 5.15039C10.1345 5.59642 10.1894 5.86449 10.249 6.0473L10.2558 6.06786L10.2741 6.05617C10.4352 5.95126 10.6462 5.77705 10.9956 5.48586L11.1999 5.31561C11.3256 5.21085 11.447 5.10971 11.5555 5.03107C11.6731 4.94586 11.8212 4.85243 12.0067 4.79562C12.4241 4.66778 12.8765 4.72816 13.2459 4.96099C13.41 5.06446 13.5284 5.19345 13.6195 5.30652C13.7036 5.41086 13.7942 5.54029 13.888 5.67435L13.8995 5.69082C14.5956 6.68522 15.0779 7.81317 15.316 9.00342L15.4387 9.6173C15.6543 10.695 15.6543 11.8048 15.4388 12.8825L15.431 12.9215C15.1026 14.5635 13.8843 15.8845 12.2742 16.3446C10.1345 16.9559 7.86635 16.9559 5.72665 16.3446C4.11652 15.8845 2.89829 14.5635 2.56988 12.9215L2.53479 12.746C2.33954 11.7698 2.31172 10.7675 2.45252 9.78195L2.53245 9.22244C2.86331 6.90641 3.85953 4.73627 5.40014 2.97558L5.85973 2.45033C6.26378 1.98847 6.62114 1.57998 6.93773 1.30976ZM10.0563 9.74523C9.47314 9.16203 8.52759 9.16203 7.94439 9.74523L6.80301 10.8866C5.78769 11.9019 5.40264 13.3879 5.7971 14.7685C6.01038 15.515 6.57828 16.1081 7.31477 16.3536L7.50705 16.4177C8.47638 16.7408 9.52436 16.7408 10.4937 16.4177L10.686 16.3536C11.4225 16.1081 11.9904 15.515 12.2036 14.7685C12.5981 13.3879 12.213 11.9019 11.1977 10.8866L10.0563 9.74523Z" fill="#333333"/>
</svg>
