<svg width="16" height="16" viewBox="0 0 16 16" fill="none" xmlns="http://www.w3.org/2000/svg">
<path d="M7.99995 0.839722C7.44887 0.839722 7.10623 1.21487 6.89328 1.52355C6.68331 1.82791 6.46998 2.26026 6.22882 2.74902L5.36121 4.50699C5.27992 4.67171 5.23809 4.755 5.20316 4.81195L5.2014 4.81481L5.19814 4.8156C5.13318 4.83122 5.04104 4.84527 4.85925 4.87168L2.91922 5.15358C2.37986 5.2319 1.90275 5.30119 1.54841 5.40683C1.18902 5.51397 0.726358 5.72391 0.556065 6.24802C0.385771 6.77213 0.636675 7.21392 0.864446 7.51185C1.08902 7.80559 1.43429 8.14208 1.8246 8.52247L3.22843 9.89086C3.35997 10.0191 3.42625 10.0846 3.46962 10.1354L3.47179 10.138L3.47154 10.1413C3.46633 10.2079 3.45121 10.2999 3.42016 10.4809L3.08876 12.4131C2.99658 12.9503 2.91503 13.4255 2.906 13.7951C2.89685 14.17 2.95354 14.6749 3.39938 14.9988C3.84521 15.3228 4.34291 15.2207 4.69664 15.0961C5.04541 14.9733 5.47212 14.7489 5.95451 14.4952L7.68972 13.583C7.85231 13.4975 7.93511 13.4547 7.99685 13.4291L7.99995 13.4279L8.00305 13.4291C8.06479 13.4547 8.14759 13.4975 8.31018 13.583L10.0454 14.4952C10.5278 14.7489 10.9545 14.9733 11.3033 15.0961C11.657 15.2207 12.1547 15.3228 12.6005 14.9988C13.0464 14.6749 13.1031 14.17 13.0939 13.7951C13.0849 13.4255 13.0033 12.9503 12.9111 12.4131L12.5797 10.4809C12.5487 10.2999 12.5336 10.2079 12.5284 10.1413L12.5281 10.138L12.5303 10.1354C12.5737 10.0846 12.6399 10.0191 12.7715 9.89086L14.1753 8.52249C14.5656 8.14209 14.9109 7.80559 15.1355 7.51185C15.3632 7.21392 15.6141 6.77213 15.4438 6.24802C15.2735 5.72391 14.8109 5.51397 14.4515 5.40683C14.0971 5.30119 13.62 5.2319 13.0807 5.15358L11.1406 4.87168C10.9589 4.84527 10.8667 4.83122 10.8018 4.8156L10.7985 4.8148L10.7967 4.81195C10.7618 4.755 10.72 4.67171 10.6387 4.50699L9.77109 2.74903C9.52992 2.26026 9.3166 1.82791 9.10662 1.52355C8.89367 1.21487 8.55103 0.839722 7.99995 0.839722Z" fill="#262626"/>
</svg>
